<svg id="in" xmlns="http://www.w3.org/2000/svg" width="101" height="101" viewBox="0 0 101 101">
  <metadata><?xpacket begin="﻿" id="W5M0MpCehiHzreSzNTczkc9d"?>
<x:xmpmeta xmlns:x="adobe:ns:meta/" x:xmptk="Adobe XMP Core 5.6-c142 79.160924, 2017/07/13-01:06:39        ">
   <rdf:RDF xmlns:rdf="http://www.w3.org/1999/02/22-rdf-syntax-ns#">
      <rdf:Description rdf:about=""/>
   </rdf:RDF>
</x:xmpmeta>
                                                                                                    
                                                                                                    
                                                                                                    
                                                                                                    
                                                                                                    
                                                                                                    
                                                                                                    
                                                                                                    
                                                                                                    
                                                                                                    
                                                                                                    
                                                                                                    
                                                                                                    
                                                                                                    
                                                                                                    
                                                                                                    
                                                                                                    
                                                                                                    
                                                                                                    
                                                                                                    
                           
<?xpacket end="w"?></metadata>
<defs>
    <style>
      .cls-1 {
        fill: #00704a;
      }

      .cls-2 {
        fill: #fff;
        fill-rule: evenodd;
      }
    </style>
  </defs>
  <rect id="Rounded_Rectangle_1_copy" data-name="Rounded Rectangle 1 copy" class="cls-1" width="101" height="101" rx="15" ry="15"/>
  <path id="Shape_1_copy_3" data-name="Shape 1 copy 3" class="cls-2" d="M71.078,54.484c-1.939,2.5-8.4,2.842-13.949,2.737a33.839,33.839,0,0,1-.614,10.357c-1.725,6.4-8.663,5.56-10,2.5-2.374-1.841-2.8-7.756-2.749-13.1-2.4.065-4.82,0.133-7.689,0-5.65-.256-7.25-2.892-7.5-7.5s5-5,5-5c2.21-.442,6.574-0.338,10.479-0.184-0.066-2.923-.2-5.743-0.042-9.222,0.256-5.65,2.892-7.25,7.5-7.5s5,5,5,5c0.477,2.384.318,7.279,0.147,11.4,3.971-.3,8.381-0.443,11.916.51C74.975,46.209,74.138,53.148,71.078,54.484Z"/>
</svg>
