<svg id="location" xmlns="http://www.w3.org/2000/svg" width="101" height="101" viewBox="0 0 101 101">
  <metadata><?xpacket begin="﻿" id="W5M0MpCehiHzreSzNTczkc9d"?>
<x:xmpmeta xmlns:x="adobe:ns:meta/" x:xmptk="Adobe XMP Core 5.6-c142 79.160924, 2017/07/13-01:06:39        ">
   <rdf:RDF xmlns:rdf="http://www.w3.org/1999/02/22-rdf-syntax-ns#">
      <rdf:Description rdf:about=""/>
   </rdf:RDF>
</x:xmpmeta>
                                                                                                    
                                                                                                    
                                                                                                    
                                                                                                    
                                                                                                    
                                                                                                    
                                                                                                    
                                                                                                    
                                                                                                    
                                                                                                    
                                                                                                    
                                                                                                    
                                                                                                    
                                                                                                    
                                                                                                    
                                                                                                    
                                                                                                    
                                                                                                    
                                                                                                    
                                                                                                    
                           
<?xpacket end="w"?></metadata>
<defs>
    <style>
      .cls-1 {
        fill: #045338;
      }

      .cls-1, .cls-2 {
        fill-rule: evenodd;
      }

      .cls-2 {
        fill: #00704a;
      }
    </style>
  </defs>
  <path class="cls-1" d="M94,45.629c-2.293,1.155-40.464,9.552-49.3,30.45-1.526,3.609-2.779,5.114-3.816,5.193,0.558,3.294.9,5.626,0.916,6.407,0.069,4.608-3.763,9.733-8.7,11.6-28.4-35.723-30.7-82.7-30.45-87S7,2.129,7,2.129l23.2,23.2s2.973,14.888,5.909,30.148C35.993,51.421,36,48.529,36,48.529l18.85-17.4,43.5,2.9S96.293,44.474,94,45.629Z"/>
  <path id="Shape_2_copy" data-name="Shape 2 copy" class="cls-2" d="M57.115,52.765c-17.977,22.771-10.269,45-21.49,40.295C18.365,58.968,9.606,32.757,6.075,1.725c31.032,3.531,57.243,12.29,91.334,29.549C102.114,42.5,79.886,34.787,57.115,52.765Z"/>
</svg>
